<svg width="804" height="266" viewBox="0 0 804 266" fill="none" xmlns="http://www.w3.org/2000/svg">
<path d="M140.698 84.2783H112.559C112.559 76.3096 111.562 70.416 109.57 66.5977C107.744 62.6133 105.503 59.293 102.847 56.6367C99.8584 54.3125 96.4551 52.5693 92.6367 51.4072C88.9844 50.0791 85.415 49.332 81.9287 49.166C75.6201 49.166 69.5605 50.4941 63.75 53.1504C58.1055 55.8066 52.959 60.123 48.3105 66.0996C43.6621 72.2422 40.0098 80.1279 37.3535 89.7568C34.6973 99.2197 33.3691 108.683 33.3691 118.146C33.3691 124.288 34.1162 131.676 35.6104 140.309C37.1045 148.941 39.8438 157.408 43.8281 165.709C47.9785 173.346 53.54 179.82 60.5127 185.133C67.4854 190.279 76.4502 192.853 87.4072 192.853C95.376 192.853 102.93 191.524 110.068 188.868C117.207 186.046 125.508 181.729 134.971 175.919V204.557C132.148 206.051 129.409 207.462 126.753 208.79C124.263 210.118 120.859 211.446 116.543 212.774C106.582 215.597 95.21 217.008 82.4268 217.008C69.1455 217.008 57.6074 214.103 47.8125 208.292C38.1836 202.481 30.0488 194.762 23.4082 185.133C16.9336 175.504 12.3682 164.962 9.71191 153.507C7.22168 142.052 5.97656 130.265 5.97656 118.146C5.97656 106.026 7.3877 94.4053 10.21 83.2822C13.0322 72.1592 17.6807 62.3643 24.1553 53.8975C30.4639 45.5967 38.4326 38.707 48.0615 33.2285C57.6904 27.584 68.9795 24.7617 81.9287 24.7617C89.7314 24.7617 97.2021 26.1729 104.341 28.9951C111.479 31.6514 117.705 35.3867 123.018 40.2012C128.33 45.0156 132.563 50.8262 135.718 57.6328C139.038 64.2734 140.698 73.1553 140.698 84.2783ZM254.253 214.02H227.856V202.315C225.698 204.474 222.959 206.715 219.639 209.039C215.488 211.695 210.757 213.688 205.444 215.016C200.132 216.178 193.906 216.759 186.768 216.759C183.447 216.759 179.463 215.929 174.814 214.269C170.332 212.608 166.514 210.201 163.359 207.047C159.707 203.893 156.968 200.074 155.142 195.592C153.315 191.109 152.402 186.046 152.402 180.401C152.402 170.274 155.059 161.476 160.371 154.005C165.85 146.534 172.49 141.471 180.293 138.814C185.439 136.988 190.835 135.66 196.479 134.83C202.124 134 206.855 133.585 210.674 133.585H227.856V124.869C227.856 123.541 227.524 121.383 226.86 118.395C226.362 115.24 225.283 112.418 223.623 109.928C222.129 107.438 219.805 105.362 216.65 103.702C213.496 102.042 209.678 101.212 205.195 101.212C199.551 101.212 194.653 102.789 190.503 105.943C186.519 108.932 184.526 114.078 184.526 121.383H155.391C155.391 114.078 156.304 108.185 158.13 103.702C160.122 99.0537 163.276 94.9033 167.593 91.251C171.743 87.4326 177.056 84.3613 183.53 82.0371C190.171 79.5469 197.393 78.3018 205.195 78.3018C221.133 78.3018 233.252 82.7842 241.553 91.749C250.02 100.714 254.253 111.422 254.253 123.873V214.02ZM227.856 164.215V155.001C226.694 155.001 223.789 155.084 219.141 155.25C214.492 155.25 208.682 155.831 201.709 156.993C196.064 157.989 191.084 160.064 186.768 163.219C181.787 167.369 179.297 172.267 179.297 177.911C179.297 183.888 180.791 188.121 183.779 190.611C186.934 192.936 190.835 194.098 195.483 194.098C197.31 194.098 199.966 193.683 203.452 192.853C206.938 192.022 210.01 190.694 212.666 188.868C218.311 185.05 222.627 180.401 225.615 174.923C227.109 172.267 227.856 168.697 227.856 164.215ZM354.609 104.947C347.139 104.947 341.162 105.528 336.68 106.69C332.197 107.853 327.964 109.596 323.979 111.92C320.161 114.078 316.592 117.232 313.271 121.383C310.117 125.533 308.042 130.431 307.046 136.075C305.718 143.048 305.054 150.768 305.054 159.234V214.02H278.906V81.5391H305.054V99.7178C308.54 94.7373 313.022 90.4209 318.501 86.7686C326.968 81.29 339.004 78.4678 354.609 78.3018V104.947ZM397.69 60.3721H367.061V28.248H397.69V60.3721ZM396.196 214.02H369.053V81.5391H396.196V214.02ZM675.85 127.857H647.959C647.959 119.723 646.133 113.248 642.48 108.434C638.828 103.619 633.433 101.212 626.294 101.212C617.993 101.212 610.854 105.03 604.878 112.667C599.067 120.304 596.162 131.178 596.162 145.289C596.162 148.609 596.411 152.179 596.909 155.997C597.573 159.649 598.569 163.302 599.897 166.954C601.226 171.271 603.301 175.338 606.123 179.156C609.111 182.975 612.847 186.461 617.329 189.615C618.823 190.611 621.23 191.607 624.551 192.604C628.037 193.434 632.104 193.849 636.753 193.849C640.073 193.849 644.39 193.434 649.702 192.604C655.015 191.607 662.485 188.37 672.114 182.892V206.3C663.979 211.28 655.928 214.435 647.959 215.763C639.99 217.091 632.021 217.34 624.053 216.51C617.08 215.846 610.107 213.854 603.135 210.533C596.328 207.047 590.767 202.979 586.45 198.331C581.47 192.354 577.236 184.884 573.75 175.919C570.43 166.954 568.77 156.661 568.77 145.04C568.77 135.411 570.015 126.612 572.505 118.644C574.995 110.509 578.647 103.536 583.462 97.7256C588.276 91.749 594.336 87.0176 601.641 83.5312C608.945 80.0449 617.329 78.3018 626.792 78.3018C633.599 78.3018 639.907 79.3809 645.718 81.5391C651.528 83.6973 656.592 86.7686 660.908 90.7529C665.391 94.5713 668.96 99.3027 671.616 104.947C674.438 110.592 675.85 118.229 675.85 127.857ZM790.898 214.02H764.502V202.315C762.344 204.474 759.604 206.715 756.284 209.039C752.134 211.695 747.402 213.688 742.09 215.016C736.777 216.178 730.552 216.759 723.413 216.759C720.093 216.759 716.108 215.929 711.46 214.269C706.978 212.608 703.159 210.201 700.005 207.047C696.353 203.893 693.613 200.074 691.787 195.592C689.961 191.109 689.048 186.046 689.048 180.401C689.048 170.274 691.704 161.476 697.017 154.005C702.495 146.534 709.136 141.471 716.938 138.814C722.085 136.988 727.48 135.66 733.125 134.83C738.77 134 743.501 133.585 747.319 133.585H764.502V124.869C764.502 123.541 764.17 121.383 763.506 118.395C763.008 115.24 761.929 112.418 760.269 109.928C758.774 107.438 756.45 105.362 753.296 103.702C750.142 102.042 746.323 101.212 741.841 101.212C736.196 101.212 731.299 102.789 727.148 105.943C723.164 108.932 721.172 114.078 721.172 121.383H692.036C692.036 114.078 692.949 108.185 694.775 103.702C696.768 99.0537 699.922 94.9033 704.238 91.251C708.389 87.4326 713.701 84.3613 720.176 82.0371C726.816 79.5469 734.038 78.3018 741.841 78.3018C757.778 78.3018 769.897 82.7842 778.198 91.749C786.665 100.714 790.898 111.422 790.898 123.873V214.02ZM764.502 164.215V155.001C763.34 155.001 760.435 155.084 755.786 155.25C751.138 155.25 745.327 155.831 738.354 156.993C732.71 157.989 727.729 160.064 723.413 163.219C718.433 167.369 715.942 172.267 715.942 177.911C715.942 183.888 717.437 188.121 720.425 190.611C723.579 192.936 727.48 194.098 732.129 194.098C733.955 194.098 736.611 193.683 740.098 192.853C743.584 192.022 746.655 190.694 749.312 188.868C754.956 185.05 759.272 180.401 762.261 174.923C763.755 172.267 764.502 168.697 764.502 164.215Z" fill="#371617"/>
<path d="M500.16 148.713C452.331 150.835 415.17 141.196 402.568 136.111C409.201 125.594 467.187 130.71 487.274 130.71C546.397 123.524 565.347 131.317 567.432 136.111C564.936 139.427 547.989 146.59 500.16 148.713Z" fill="#15302B"/>
<ellipse cx="484.432" cy="127.041" rx="74.4726" ry="71.4406" fill="#643233"/>
<path d="M404.937 135.758H402C408.19 149.654 422.428 181.237 429.856 196.397C435.617 212.239 450.132 217.021 456.67 217.432H511.909C528.281 217.432 537.301 203.409 539.765 196.397L568 135.758C565.221 137.653 559.113 140.306 556.914 135.758C552.082 143.527 549.429 139.358 543.081 137.558C540.618 150.16 533.511 142.959 527.826 142.959C524.248 146.537 516.74 143.003 513.485 141.471L513.425 141.443C511.056 145.328 503.76 146.275 498.928 141.443C494.38 145.328 487.274 144.475 481.589 141.443C476.852 145.328 472.209 144.475 467.092 141.443C459.228 147.128 452.122 142.959 447.953 139.358C445.016 142.959 434.12 142.675 432.32 139.358C425.119 142.959 419.055 140.874 419.055 137.558C408.974 138.998 405.443 136.958 404.937 135.758Z" fill="#30B8A1"/>
<path fill-rule="evenodd" clip-rule="evenodd" d="M541.195 140.515C540.772 140.937 540.33 141.285 539.876 141.569L532.7 178.656L545.837 137.042C545.438 136.883 545.059 136.72 544.708 136.569L544.678 136.556L544.493 136.477L544.491 136.476L544.486 136.474C544.242 136.369 544 136.265 543.759 136.163C543.13 137.955 542.298 139.417 541.195 140.515ZM527.394 140.721C527.135 140.896 526.871 141.051 526.602 141.19L521.899 178.656L532.506 142.184C531.731 141.981 530.997 141.745 530.355 141.539C530.224 141.497 530.096 141.456 529.973 141.417C528.925 141.084 528.094 140.843 527.394 140.721ZM512.822 139.771C512.082 140.408 511.246 140.928 510.351 141.331L507.402 181.688L515.117 140.702C514.291 140.396 513.515 140.075 512.822 139.771ZM497.381 139.876C497.107 140.031 496.83 140.174 496.549 140.308L497.833 178.656L502.255 142.048C500.582 141.664 498.918 140.953 497.381 139.876ZM480.515 139.598C479.85 140.024 479.177 140.385 478.494 140.681L484.284 181.688V140.937C482.979 140.585 481.712 140.129 480.515 139.598ZM465.839 139.612C464.856 140.188 463.876 140.645 462.905 140.994L470.166 181.688V141.287C468.682 140.917 467.238 140.329 465.839 139.612ZM446.549 137.844C446.173 138.054 445.786 138.238 445.397 138.4L458.228 188.605L452.144 140.896C450.011 140.123 448.127 138.998 446.549 137.844ZM430.296 137.593C429.91 137.743 429.525 137.879 429.143 138.003L446.763 188.605L432.433 138.66C431.739 138.407 430.991 138.064 430.296 137.593ZM421.016 138.664C420.674 138.595 420.325 138.507 419.977 138.399L437.762 186.804L423.819 138.916C422.833 138.927 421.894 138.841 421.016 138.664ZM413.64 135.658C412.227 135.739 410.956 135.744 409.814 135.684L426.108 176.287L413.64 135.658ZM539.238 178.656L557.086 135.543C556.961 135.502 556.837 135.457 556.712 135.409C556.421 135.295 556.139 135.163 555.868 135.013C555.235 135.707 554.575 136.289 553.872 136.75C553.095 137.26 552.309 137.592 551.524 137.779L539.238 178.656Z" fill="#316B61"/>
<rect x="430.539" y="132.79" width="8.85388" height="22.3082" rx="4.42694" transform="rotate(109.313 430.539 132.79)" fill="#8F4F4F" stroke="#643233"/>
<rect x="434.478" y="124.406" width="8.85388" height="22.3082" rx="4.42694" transform="rotate(106.37 434.478 124.406)" fill="#8F4F4F" stroke="#643233"/>
<rect x="443.339" y="128.96" width="8.85388" height="22.3082" rx="4.42694" transform="rotate(135.735 443.339 128.96)" fill="#8F4F4F" stroke="#643233"/>
<rect x="449.245" y="128.516" width="8.85388" height="22.3082" rx="4.42694" transform="rotate(86.7221 449.245 128.516)" fill="#8F4F4F" stroke="#643233"/>
<rect x="475.087" y="127.514" width="8.85388" height="22.3082" rx="4.42694" transform="rotate(65.5837 475.087 127.514)" fill="#8F4F4F" stroke="#643233"/>
<rect x="459.359" y="124.292" width="8.85388" height="22.3082" rx="4.42694" transform="rotate(65.5837 459.359 124.292)" fill="#8F4F4F" stroke="#643233"/>
<rect x="477.836" y="125.283" width="8.85388" height="22.3082" rx="4.42694" transform="rotate(89.0098 477.836 125.283)" fill="#8F4F4F" stroke="#643233"/>
<rect x="498.149" y="126.034" width="8.85388" height="22.3082" rx="4.42694" transform="rotate(89.0098 498.149 126.034)" fill="#8F4F4F" stroke="#643233"/>
<rect x="493.656" y="138.742" width="8.85388" height="22.3082" rx="4.42694" transform="rotate(116.868 493.656 138.742)" fill="#8F4F4F" stroke="#643233"/>
<rect x="512.037" y="139.311" width="8.85388" height="22.3082" rx="4.42694" transform="rotate(116.868 512.037 139.311)" fill="#8F4F4F" stroke="#643233"/>
<rect x="514.066" y="119.592" width="8.85388" height="22.3082" rx="4.42694" transform="rotate(36.2999 514.066 119.592)" fill="#8F4F4F" stroke="#643233"/>
<rect x="545.677" y="102.111" width="8.85388" height="22.3082" rx="4.42694" transform="rotate(22.3446 545.677 102.111)" fill="#8F4F4F" stroke="#643233"/>
<rect x="553.446" y="107.038" width="8.85388" height="22.3082" rx="4.42694" transform="rotate(22.3446 553.446 107.038)" fill="#8F4F4F" stroke="#643233"/>
<rect x="563.687" y="127.386" width="8.85388" height="22.3082" rx="4.42694" transform="rotate(85.868 563.687 127.386)" fill="#8F4F4F" stroke="#643233"/>
<rect x="542.365" y="138.726" width="8.85388" height="22.3082" rx="4.42694" transform="rotate(107.979 542.365 138.726)" fill="#8F4F4F" stroke="#643233"/>
<rect x="524.135" y="122.44" width="8.85388" height="22.3082" rx="4.42694" transform="rotate(40.7199 524.135 122.44)" fill="#8F4F4F" stroke="#643233"/>
<rect x="530.055" y="114.722" width="8.85388" height="22.3082" rx="4.42694" transform="rotate(-2.73259 530.055 114.722)" fill="#8F4F4F" stroke="#643233"/>
<rect x="520.58" y="107.521" width="8.85388" height="22.3082" rx="4.42694" transform="rotate(-2.73259 520.58 107.521)" fill="#8F4F4F" stroke="#643233"/>
<rect x="511.484" y="102.025" width="8.85388" height="22.3082" rx="4.42694" transform="rotate(-2.73259 511.484 102.025)" fill="#8F4F4F" stroke="#643233"/>
<rect x="476.206" y="129.444" width="8.85388" height="22.3082" rx="4.42694" transform="rotate(-91.1089 476.206 129.444)" fill="#8F4F4F" stroke="#643233"/>
<rect x="443.612" y="130.202" width="8.85388" height="22.3082" rx="4.42694" transform="rotate(-91.1089 443.612 130.202)" fill="#8F4F4F" stroke="#643233"/>
<rect x="479.996" y="83.7753" width="8.85388" height="22.3082" rx="4.42694" transform="rotate(-91.1089 479.996 83.7753)" fill="#8F4F4F" stroke="#643233"/>
<rect x="473.364" y="93.6292" width="8.85388" height="22.3082" rx="4.42694" transform="rotate(-91.1089 473.364 93.6292)" fill="#8F4F4F" stroke="#643233"/>
<rect x="468.735" y="109.174" width="8.85388" height="22.3082" rx="4.42694" transform="rotate(3.29766 468.735 109.174)" fill="#8F4F4F" stroke="#643233"/>
<rect x="485.902" y="91.3958" width="8.85388" height="22.3082" rx="4.42694" transform="rotate(40.3103 485.902 91.3958)" fill="#8F4F4F" stroke="#643233"/>
<rect x="491.609" y="98.3737" width="8.85388" height="22.3082" rx="4.42694" transform="rotate(40.3103 491.609 98.3737)" fill="#8F4F4F" stroke="#643233"/>
<rect x="512.211" y="112.716" width="8.85388" height="22.3082" rx="4.42694" transform="rotate(92.9403 512.211 112.716)" fill="#8F4F4F" stroke="#643233"/>
<rect x="520.196" y="104.834" width="8.85388" height="22.3082" rx="4.42694" transform="rotate(92.9403 520.196 104.834)" fill="#8F4F4F" stroke="#643233"/>
<rect x="516.027" y="95.1693" width="8.85388" height="22.3082" rx="4.42694" transform="rotate(92.9403 516.027 95.1693)" fill="#8F4F4F" stroke="#643233"/>
<rect x="502.324" y="103.914" width="8.85388" height="22.3082" rx="4.42694" transform="rotate(-178.072 502.324 103.914)" fill="#8F4F4F" stroke="#643233"/>
<rect x="510.473" y="95.0073" width="8.85388" height="22.3082" rx="4.42694" transform="rotate(-178.072 510.473 95.0073)" fill="#8F4F4F" stroke="#643233"/>
<rect x="529.757" y="104.291" width="8.85388" height="22.3082" rx="4.42694" transform="rotate(133.62 529.757 104.291)" fill="#8F4F4F" stroke="#643233"/>
<rect x="537.483" y="117.375" width="8.85388" height="22.3082" rx="4.42694" transform="rotate(169.712 537.483 117.375)" fill="#8F4F4F" stroke="#643233"/>
<rect x="553.165" y="111.586" width="8.85388" height="22.3082" rx="4.42694" transform="rotate(139.197 553.165 111.586)" fill="#8F4F4F" stroke="#643233"/>
<rect x="559.504" y="102.906" width="8.85388" height="22.3082" rx="4.42694" transform="rotate(139.049 559.504 102.906)" fill="#8F4F4F" stroke="#643233"/>
<rect x="546.986" y="96.6908" width="8.85388" height="22.3082" rx="4.42694" transform="rotate(144.437 546.986 96.6908)" fill="#8F4F4F" stroke="#643233"/>
<rect x="548.674" y="83.6144" width="8.85388" height="22.3082" rx="4.42694" transform="rotate(139.197 548.674 83.6144)" fill="#8F4F4F" stroke="#643233"/>
<rect x="520.93" y="98.283" width="8.85388" height="22.3082" rx="4.42694" transform="rotate(-128.215 520.93 98.283)" fill="#8F4F4F" stroke="#643233"/>
<rect x="516.326" y="94.5475" width="8.85388" height="22.3082" rx="4.42694" transform="rotate(-139.852 516.326 94.5475)" fill="#8F4F4F" stroke="#643233"/>
<rect x="512.152" y="81.1012" width="8.85388" height="22.3082" rx="4.42694" transform="rotate(-112.442 512.152 81.1012)" fill="#8F4F4F" stroke="#643233"/>
<rect x="502.866" y="77.6903" width="8.85388" height="22.3082" rx="4.42694" transform="rotate(-112.442 502.866 77.6903)" fill="#8F4F4F" stroke="#643233"/>
<rect x="461.745" y="92.6606" width="8.85388" height="22.3082" rx="4.42694" transform="rotate(-112.442 461.745 92.6606)" fill="#8F4F4F" stroke="#643233"/>
<rect x="464.398" y="82.9962" width="8.85388" height="22.3082" rx="4.42694" transform="rotate(-112.442 464.398 82.9962)" fill="#8F4F4F" stroke="#643233"/>
<rect x="475.095" y="71.5988" width="8.85388" height="22.3082" rx="4.42694" transform="rotate(-87.9175 475.095 71.5988)" fill="#8F4F4F" stroke="#643233"/>
<rect x="490.445" y="63.4503" width="8.85388" height="22.3082" rx="4.42694" transform="rotate(-87.9175 490.445 63.4503)" fill="#8F4F4F" stroke="#643233"/>
<rect x="468.274" y="61.3659" width="8.85388" height="22.3082" rx="4.42694" transform="rotate(-87.9175 468.274 61.3659)" fill="#8F4F4F" stroke="#643233"/>
<rect x="454" y="61.4187" width="8.85388" height="22.3082" rx="4.42694" transform="rotate(-62.4482 454 61.4187)" fill="#8F4F4F" stroke="#643233"/>
<rect x="446.259" y="68.1043" width="8.85388" height="22.3082" rx="4.42694" transform="rotate(-62.4482 446.259 68.1043)" fill="#8F4F4F" stroke="#643233"/>
<rect x="457.634" y="65.3423" width="8.85388" height="22.3082" rx="4.42694" transform="rotate(20.9946 457.634 65.3423)" fill="#8F4F4F" stroke="#643233"/>
<rect x="439.279" y="70.6111" width="8.85388" height="22.3082" rx="4.42694" transform="rotate(-42.3666 439.279 70.6111)" fill="#8F4F4F" stroke="#643233"/>
<rect x="432.445" y="75.2394" width="8.85388" height="22.3082" rx="4.42694" transform="rotate(-33.7776 432.445 75.2394)" fill="#8F4F4F" stroke="#643233"/>
<rect x="465.039" y="86.7003" width="8.85388" height="22.3082" rx="4.42694" transform="rotate(-0.555764 465.039 86.7003)" fill="#8F4F4F" stroke="#643233"/>
<rect x="456.512" y="86.7003" width="8.85388" height="22.3082" rx="4.42694" transform="rotate(-0.555764 456.512 86.7003)" fill="#8F4F4F" stroke="#643233"/>
<rect x="446.847" y="94.4697" width="8.85388" height="22.3082" rx="4.42694" transform="rotate(-0.555764 446.847 94.4697)" fill="#8F4F4F" stroke="#643233"/>
<rect x="464.751" y="101.205" width="8.85388" height="22.3082" rx="4.42694" transform="rotate(33.7974 464.751 101.205)" fill="#8F4F4F" stroke="#643233"/>
<rect x="448.239" y="101.839" width="8.85388" height="22.3082" rx="4.42694" transform="rotate(12.7395 448.239 101.839)" fill="#8F4F4F" stroke="#643233"/>
<rect x="451.717" y="86.1344" width="8.85388" height="22.3082" rx="4.42694" transform="rotate(41.4354 451.717 86.1344)" fill="#8F4F4F" stroke="#643233"/>
<rect x="443.998" y="82.0779" width="8.85388" height="22.3082" rx="4.42694" transform="rotate(41.4354 443.998 82.0779)" fill="#8F4F4F" stroke="#643233"/>
<rect x="427.15" y="101.751" width="8.85388" height="22.3082" rx="4.42694" transform="rotate(-50.0635 427.15 101.751)" fill="#8F4F4F" stroke="#643233"/>
<rect x="436.024" y="105.563" width="8.85388" height="22.3082" rx="4.42694" transform="rotate(0.433732 436.024 105.563)" fill="#8F4F4F" stroke="#643233"/>
<rect x="424.542" y="97.9709" width="8.85388" height="22.3082" rx="4.42694" transform="rotate(-11.3684 424.542 97.9709)" fill="#8F4F4F" stroke="#643233"/>
<rect x="429.264" y="76.7364" width="8.85388" height="22.3082" rx="4.42694" transform="rotate(26.3965 429.264 76.7364)" fill="#8F4F4F" stroke="#643233"/>
<rect x="413.066" y="96.4908" width="8.85388" height="22.3082" rx="4.42694" transform="rotate(-20.5311 413.066 96.4908)" fill="#8F4F4F" stroke="#643233"/>
<rect x="406.671" y="107.673" width="8.85388" height="22.3082" rx="4.42694" transform="rotate(-39.1284 406.671 107.673)" fill="#8F4F4F" stroke="#643233"/>
<rect x="508.76" y="115.423" width="8.85388" height="22.3082" rx="4.42694" transform="rotate(36.2999 508.76 115.423)" fill="#8F4F4F" stroke="#643233"/>
<rect x="15" y="246" width="773" height="20" fill="#30B8A1"/>
</svg>
